<svg width="128" height="128" viewBox="0 0 128 128" fill="none" xmlns="http://www.w3.org/2000/svg">
<g clip-path="url(#clip0_209_213)">
<path d="M103 0H25C11.1929 0 0 11.1929 0 25V103C0 116.807 11.1929 128 25 128H103C116.807 128 128 116.807 128 103V25C128 11.1929 116.807 0 103 0Z" fill="#F6CC04"/>
<path d="M26.6909 54.9004C26.6909 58.4161 28.815 61.8584 32.9897 63.2867L31.1588 66.3628C28.1191 65.2459 26.0317 63.1768 24.8599 60.6133C23.688 63.4148 21.5822 65.6853 18.4511 66.9122L16.5469 63.9092C20.7216 62.2613 22.8091 58.6724 22.8458 54.9004V54.6441H17.3891V51.4581H22.8458V47.8326H26.6909V51.4581H32.0742V54.6441H26.6909V54.9004ZM44.7817 47.5029V67.7544H40.8999V59.2949H37.7139V67.6079H33.8686V48.0523H37.7139V55.9991H40.8999V47.5029H44.7817ZM44.7817 69.2559V80.5718H40.7168V72.5518H22.1133V69.2559H44.7817ZM75.9096 48.6382V50.2862C75.9096 52.3369 75.9096 55.4864 74.9209 59.4781L70.9659 59.0387C71.6799 55.9624 71.863 53.7103 71.918 51.9342H64.2275V48.6382H75.9096ZM78.9859 61.1261V64.3853H48.9565V61.1261H62.5796V56.0357H66.5713V61.1261H78.9859ZM61.664 48.6382V50.2129C61.6275 52.1904 61.6275 55.4498 59.9795 59.5147L56.0244 58.8922C57.2329 55.8343 57.5442 53.6371 57.6357 51.9342H51.4101V48.6382H61.664ZM75.1773 68.4137V71.5264H66.0953C66.7361 74.1998 70.5813 76.7083 76.5689 77.3492L75.1773 80.3887C69.9404 79.7844 65.9304 77.7887 63.9346 74.9688C61.9387 77.7703 57.9288 79.7844 52.7285 80.3887L51.3735 77.3492C57.2329 76.7083 61.133 74.1998 61.8105 71.5264H52.6919V68.4137H61.8838V65.4473H65.9854V68.4137H75.1773ZM108.832 47.4663V80.6084H104.73V47.4663H108.832ZM90.9975 49.8833C95.978 49.8833 99.6035 54.4244 99.6401 61.5654C99.6035 68.7798 95.978 73.2842 90.9975 73.2842C85.9805 73.2842 82.355 68.7798 82.355 61.5654C82.355 54.4244 85.9805 49.8833 90.9975 49.8833ZM90.9975 53.5454C88.1777 53.5454 86.2735 56.5118 86.2735 61.5654C86.2735 66.6558 88.1777 69.6222 90.9975 69.6222C93.7807 69.6222 95.685 66.6558 95.685 61.5654C95.685 56.5118 93.7807 53.5454 90.9975 53.5454Z" fill="white"/>
</g>
<defs>
<clipPath id="clip0_209_213">
<rect width="128" height="128" fill="white"/>
</clipPath>
</defs>
</svg>
