<svg width="144" height="144" viewBox="0 0 144 144" fill="none" xmlns="http://www.w3.org/2000/svg">
<g clip-path="url(#clip0_209_216)">
<path d="M115.875 0H28.125C12.592 0 0 12.592 0 28.125V115.875C0 131.408 12.592 144 28.125 144H115.875C131.408 144 144 131.408 144 115.875V28.125C144 12.592 131.408 0 115.875 0Z" fill="#F6CC04"/>
<path d="M30.0272 61.7628C30.0272 65.7179 32.4169 69.5906 37.1135 71.1973L35.0536 74.658C31.634 73.4015 29.2857 71.0737 27.9674 68.1898C26.649 71.3415 24.28 73.8958 20.7575 75.276L18.6152 71.8976C23.3118 70.0438 25.6603 66.0063 25.7015 61.7628V61.4744H19.5628V57.8901H25.7015V53.8114H30.0272V57.8901H36.0835V61.4744H30.0272V61.7628ZM50.3795 53.4406V76.2235H46.0124V66.7066H42.4281V76.0587H38.1022V54.0587H42.4281V62.9988H46.0124V53.4406H50.3795ZM50.3795 77.9127V90.6431H45.8063V81.6206H24.8774V77.9127H50.3795ZM85.3983 54.7178V56.5718C85.3983 58.8789 85.3983 62.4221 84.286 66.9126L79.8366 66.4183C80.6399 62.9576 80.8459 60.4239 80.9077 58.4258H72.2559V54.7178H85.3983ZM88.8591 68.7666V72.4333H55.0761V68.7666H70.4021V63.04H74.8927V68.7666H88.8591ZM69.372 54.7178V56.4894C69.3309 58.7141 69.3309 62.3809 67.4769 66.9538L63.0274 66.2535C64.387 62.8134 64.7373 60.3415 64.8402 58.4258H57.8364V54.7178H69.372ZM84.5744 76.9652V80.4671H74.3572C75.0781 83.4746 79.4039 86.2967 86.14 87.0177L84.5744 90.4371C78.6829 89.7573 74.1717 87.5121 71.9265 84.3397C69.6811 87.4914 65.1698 89.7573 59.3196 90.4371L57.7952 87.0177C64.387 86.2967 68.7746 83.4746 69.5368 80.4671H59.2784V76.9652H69.6192V73.628H74.2335V76.9652H84.5744ZM122.436 53.3994V90.6843H117.822V53.3994H122.436ZM102.372 56.1185C107.975 56.1185 112.054 61.2273 112.095 69.2609C112.054 77.3771 107.975 82.4445 102.372 82.4445C96.7281 82.4445 92.6494 77.3771 92.6494 69.2609C92.6494 61.2273 96.7281 56.1185 102.372 56.1185ZM102.372 60.2384C99.2 60.2384 97.0577 63.5756 97.0577 69.2609C97.0577 74.9876 99.2 78.3248 102.372 78.3248C105.503 78.3248 107.646 74.9876 107.646 69.2609C107.646 63.5756 105.503 60.2384 102.372 60.2384Z" fill="white"/>
</g>
<defs>
<clipPath id="clip0_209_216">
<rect width="144" height="144" fill="white"/>
</clipPath>
</defs>
</svg>
