<svg width="152" height="152" viewBox="0 0 152 152" fill="none" xmlns="http://www.w3.org/2000/svg">
<g clip-path="url(#clip0_209_219)">
<path d="M122.312 0H29.6875C13.2915 0 0 13.2915 0 29.6875V122.312C0 138.708 13.2915 152 29.6875 152H122.312C138.708 152 152 138.708 152 122.312V29.6875C152 13.2915 138.708 0 122.312 0Z" fill="#F6CC04"/>
<path d="M31.6954 65.1942C31.6954 69.369 34.2178 73.4569 39.1753 75.1529L37.001 78.8058C33.3915 77.4795 30.9127 75.0224 29.5211 71.9783C28.1295 75.3051 25.6289 78.0013 21.9107 79.4582L19.6494 75.8921C24.6069 73.9353 27.0858 69.6735 27.1293 65.1942V64.8898H20.6496V61.1064H27.1293V56.8011H31.6954V61.1064H38.0882V64.8898H31.6954V65.1942ZM53.1783 56.4097V80.4584H48.5686V70.4127H44.7852V80.2844H40.219V57.0621H44.7852V66.4989H48.5686V56.4097H53.1783ZM53.1783 82.2414V95.679H48.3511V86.1552H26.2595V82.2414H53.1783ZM90.1427 57.7578V59.7148C90.1427 62.1501 90.1427 65.8901 88.9685 70.6302L84.272 70.1084C85.1199 66.4554 85.3373 63.781 85.4026 61.6718H76.2702V57.7578H90.1427ZM93.7957 72.5872V76.4575H58.1358V72.5872H74.3133V66.5423H79.0534V72.5872H93.7957ZM73.226 57.7578V59.6278C73.1827 61.9761 73.1827 65.8466 71.2257 70.6737L66.5289 69.9344C67.964 66.3032 68.3338 63.694 68.4425 61.6718H61.0495V57.7578H73.226ZM89.273 81.2412V84.9376H78.4881C79.2492 88.1122 83.8152 91.0911 90.9255 91.8521L89.273 95.4615C83.0542 94.744 78.2923 92.374 75.9224 89.0254C73.5523 92.3522 68.7904 94.744 62.6151 95.4615L61.006 91.8521C67.964 91.0911 72.5954 88.1122 73.4 84.9376H62.5716V81.2412H73.487V77.7186H78.3576V81.2412H89.273ZM129.238 56.3662V95.7225H124.367V56.3662H129.238ZM108.06 59.2364C113.974 59.2364 118.279 64.629 118.323 73.1089C118.279 81.676 113.974 87.0249 108.06 87.0249C102.102 87.0249 97.7966 81.676 97.7966 73.1089C97.7966 64.629 102.102 59.2364 108.06 59.2364ZM108.06 63.5852C104.711 63.5852 102.45 67.1077 102.45 73.1089C102.45 79.1537 104.711 82.6763 108.06 82.6763C111.365 82.6763 113.626 79.1537 113.626 73.1089C113.626 67.1077 111.365 63.5852 108.06 63.5852Z" fill="white"/>
<path d="M33.2726 65.2343C33.2726 69.4091 35.795 73.4969 40.7525 75.1929L38.5782 78.8458C34.9686 77.5195 32.4899 75.0625 31.0982 72.0183C29.7066 75.3451 27.2061 78.0413 23.4879 79.4982L21.2266 75.9322C26.1841 73.9753 28.663 69.7135 28.7065 65.2343V64.9298H22.2267V61.1465H28.7065V56.8412H33.2726V61.1465H39.6653V64.9298H33.2726V65.2343ZM54.7555 56.4497V80.4984H50.1458V70.4527H46.3624V80.3244H41.7961V57.1021H46.3624V66.5389H50.1458V56.4497H54.7555ZM54.7555 82.2814V95.719H49.9283V86.1953H27.8366V82.2814H54.7555ZM91.7198 57.7979V59.7549C91.7198 62.1901 91.7198 65.9301 90.5457 70.6702L85.8491 70.1484C86.697 66.4954 86.9145 63.821 86.9798 61.7118H77.8473V57.7979H91.7198ZM95.3729 72.6272V76.4976H59.713V72.6272H75.8905V66.5824H80.6305V72.6272H95.3729ZM74.8032 57.7979V59.6679C74.7598 62.0161 74.7598 65.8867 72.8028 70.7137L68.1061 69.9745C69.5412 66.3432 69.9109 63.734 70.0196 61.7118H62.6267V57.7979H74.8032ZM90.8501 81.2813V84.9776H80.0653C80.8263 88.1523 85.3924 91.1311 92.5027 91.8922L90.8501 95.5016C84.6313 94.784 79.8695 92.4141 77.4995 89.0655C75.1294 92.3922 70.3675 94.784 64.1922 95.5016L62.5832 91.8922C69.5412 91.1311 74.1726 88.1523 74.9771 84.9776H64.1488V81.2813H75.0641V77.7587H79.9348V81.2813H90.8501ZM130.815 56.4062V95.7625H125.945V56.4062H130.815ZM109.637 59.2764C115.551 59.2764 119.856 64.669 119.9 73.149C119.856 81.716 115.551 87.065 109.637 87.065C103.679 87.065 99.3737 81.716 99.3737 73.149C99.3737 64.669 103.679 59.2764 109.637 59.2764ZM109.637 63.6252C106.288 63.6252 104.027 67.1478 104.027 73.149C104.027 79.1938 106.288 82.7163 109.637 82.7163C112.942 82.7163 115.203 79.1938 115.203 73.149C115.203 67.1478 112.942 63.6252 109.637 63.6252Z" fill="white"/>
</g>
<defs>
<clipPath id="clip0_209_219">
<rect width="152" height="152" fill="white"/>
</clipPath>
</defs>
</svg>
