<svg width="192" height="192" viewBox="0 0 192 192" fill="none" xmlns="http://www.w3.org/2000/svg">
<g clip-path="url(#clip0_209_216)">
<path d="M154.5 0H37.5C16.7893 0 0 16.7893 0 37.5V154.5C0 175.211 16.7893 192 37.5 192H154.5C175.211 192 192 175.211 192 154.5V37.5C192 16.7893 175.211 0 154.5 0Z" fill="#F6CC04"/>
<path d="M40.0363 82.3506C40.0363 87.6241 43.2225 92.7876 49.4846 94.93L46.7381 99.5442C42.1787 97.8689 39.0476 94.7652 37.2898 90.92C35.532 95.1222 32.3734 98.528 27.6767 100.368L24.8203 95.8638C31.0824 93.392 34.2137 88.0086 34.2686 82.3506V81.9661H26.0837V77.1871H34.2686V71.7488H40.0363V77.1871H48.1114V81.9661H40.0363V82.3506ZM67.1726 71.2544V101.632H61.3498V88.9424H56.5708V101.412H50.8029V72.0785H56.5708V83.9986H61.3498V71.2544H67.1726ZM67.1726 103.884V120.858H61.0751V108.828H33.1699V103.884H67.1726ZM113.864 72.9573V75.4293C113.864 78.5054 113.864 83.2296 112.381 89.2171L106.449 88.558C107.52 83.9436 107.794 80.5655 107.877 77.9013H96.3413V72.9573H113.864ZM118.479 91.6891V96.578H73.4348V91.6891H93.8694V84.0535H99.8569V91.6891H118.479ZM92.496 72.9573V75.3194C92.4413 78.2856 92.4412 83.1747 89.9692 89.272L84.0366 88.3383C85.8493 83.7515 86.3164 80.4556 86.4536 77.9013H77.1152V72.9573H92.496ZM112.766 102.621V107.29H99.1429C100.104 111.3 105.872 115.062 114.853 116.024L112.766 120.583C104.911 119.677 98.8956 116.683 95.9019 112.453C92.9081 116.655 86.8931 119.677 79.0928 120.583L77.0603 116.024C85.8493 115.062 91.6995 111.3 92.7158 107.29H79.0378V102.621H92.8256V98.171H98.9781V102.621H112.766ZM163.248 71.1995V120.913H157.096V71.1995H163.248ZM136.496 74.825C143.967 74.825 149.405 81.6367 149.46 92.3482C149.405 103.17 143.967 109.926 136.496 109.926C128.971 109.926 123.533 103.17 123.533 92.3482C123.533 81.6367 128.971 74.825 136.496 74.825ZM136.496 80.3181C132.267 80.3181 129.41 84.7677 129.41 92.3482C129.41 99.9837 132.267 104.433 136.496 104.433C140.671 104.433 143.527 99.9837 143.527 92.3482C143.527 84.7677 140.671 80.3181 136.496 80.3181Z" fill="white"/>
</g>
<defs>
<clipPath id="clip0_209_216">
<rect width="192" height="192" fill="white"/>
</clipPath>
</defs>
</svg>
