<svg width="385" height="385" viewBox="0 0 385 385" fill="none" xmlns="http://www.w3.org/2000/svg">
<g clip-path="url(#clip0_209_225)">
<path d="M309.805 0H75.1953C33.6661 0 0 33.6661 0 75.1953V309.805C0 351.334 33.6661 385 75.1953 385H309.805C351.334 385 385 351.334 385 309.805V75.1953C385 33.6661 351.334 0 309.805 0Z" fill="#F6CC04"/>
<path d="M80.2813 165.13C80.2813 175.704 86.6702 186.058 99.2271 190.354L93.7198 199.607C84.5772 196.247 78.2987 190.024 74.774 182.313C71.2492 190.74 64.9155 197.569 55.4976 201.259L49.77 192.227C62.3269 187.27 68.6057 176.475 68.7159 165.13V164.359H52.3034V154.776H68.7159V143.871H80.2813V154.776H96.4734V164.359H80.2813V165.13ZM134.695 142.88V203.792H123.019V178.348H113.436V203.352H101.871V144.532H113.436V168.434H123.019V142.88H134.695ZM134.695 208.309V242.345H122.468V218.222H66.5126V208.309H134.695ZM228.322 146.294V151.251C228.322 157.419 228.322 166.893 225.348 178.899L213.452 177.577C215.6 168.324 216.151 161.55 216.316 156.208H193.184V146.294H228.322ZM237.575 183.855V193.659H147.252V183.855H188.228V168.545H200.234V183.855H237.575ZM185.474 146.294V151.031C185.364 156.979 185.364 166.782 180.407 179.009L168.511 177.136C172.146 167.939 173.082 161.33 173.358 156.208H154.632V146.294H185.474ZM226.119 205.775V215.138H198.802C200.73 223.179 212.295 230.724 230.305 232.652L226.119 241.794C210.368 239.976 198.306 233.974 192.303 225.492C186.3 233.918 174.239 239.976 158.598 241.794L154.522 232.652C172.146 230.724 183.877 223.179 185.915 215.138H158.487V205.775H186.135V196.853H198.472V205.775H226.119ZM327.346 142.77V242.455H315.01V142.77H327.346ZM273.704 150.039C288.684 150.039 299.589 163.698 299.699 185.177C299.589 206.877 288.684 220.425 273.704 220.425C258.613 220.425 247.709 206.877 247.709 185.177C247.709 163.698 258.613 150.039 273.704 150.039ZM273.704 161.054C265.222 161.054 259.495 169.977 259.495 185.177C259.495 200.488 265.222 209.41 273.704 209.41C282.075 209.41 287.803 200.488 287.803 185.177C287.803 169.977 282.075 161.054 273.704 161.054Z" fill="white"/>
</g>
<defs>
<clipPath id="clip0_209_225">
<rect width="385" height="385" fill="white"/>
</clipPath>
</defs>
</svg>
