<svg width="512" height="512" viewBox="0 0 512 512" fill="none" xmlns="http://www.w3.org/2000/svg">
<g clip-path="url(#clip0_209_233)">
<path d="M412 0H100C44.7715 0 0 44.7715 0 100V412C0 467.228 44.7715 512 100 512H412C467.228 512 512 467.228 512 412V100C512 44.7715 467.228 0 412 0Z" fill="#F6CC04"/>
<path d="M106.763 219.602C106.763 233.664 115.26 247.434 131.959 253.147L124.635 265.451C112.477 260.984 104.127 252.707 99.4395 242.453C94.752 253.659 86.329 262.741 73.8045 267.649L66.1875 255.637C82.8865 249.045 91.2365 234.69 91.383 219.602V218.576H69.5565V205.832H91.383V191.33H106.763V205.832H128.297V218.576H106.763V219.602ZM179.127 190.012V271.018H163.6V237.18H150.855V270.432H135.475V192.209H150.855V223.996H163.6V190.012H179.127ZM179.127 277.024V322.287H162.867V290.207H88.453V277.024H179.127ZM303.638 194.553V201.145C303.638 209.348 303.639 221.946 299.684 237.912L283.863 236.155C286.719 223.85 287.452 214.841 287.672 207.737H256.91V194.553H303.638ZM315.944 244.504V257.541H195.826V244.504H250.318V224.143H266.285V244.504H315.944ZM246.656 194.553V200.852C246.51 208.762 246.51 221.799 239.918 238.059L224.098 235.569C228.932 223.337 230.177 214.548 230.543 207.737H205.641V194.553H246.656ZM300.709 273.655V286.106H264.381C266.945 296.799 282.325 306.833 306.276 309.397L300.709 321.555C279.762 319.138 263.721 311.155 255.738 299.875C247.755 311.081 231.715 319.138 210.914 321.555L205.494 309.397C228.932 306.833 244.532 296.799 247.242 286.106H210.768V273.655H247.535V261.789H263.941V273.655H300.709ZM435.328 189.865V322.434H418.922V189.865H435.328ZM363.99 199.533C383.912 199.533 398.414 217.698 398.56 246.262C398.414 275.119 383.912 293.137 363.99 293.137C343.922 293.137 329.42 275.119 329.42 246.262C329.42 217.698 343.922 199.533 363.99 199.533ZM363.99 214.182C352.711 214.182 345.094 226.047 345.094 246.262C345.094 266.623 352.711 278.489 363.99 278.489C375.123 278.489 382.74 266.623 382.74 246.262C382.74 226.047 375.123 214.182 363.99 214.182Z" fill="white"/>
<path d="M112.076 219.736C112.076 233.799 120.573 247.568 137.271 253.281L129.948 265.586C117.789 261.118 109.439 252.842 104.752 242.588C100.064 253.794 91.6415 262.876 79.117 267.783L71.5 255.771C88.199 249.18 96.549 234.824 96.6955 219.736V218.711H74.869V205.967H96.6955V191.465H112.076V205.967H133.609V218.711H112.076V219.736ZM184.439 190.146V271.152H168.912V237.314H156.168V270.566H140.787V192.344H156.168V224.131H168.912V190.146H184.439ZM184.439 277.158V322.422H168.18V290.342H93.7655V277.158H184.439ZM308.951 194.688V201.279C308.951 209.482 308.951 222.08 304.996 238.047L289.176 236.289C292.032 223.984 292.764 214.976 292.984 207.871H262.223V194.688H308.951ZM321.256 244.639V257.676H201.139V244.639H255.631V224.277H271.598V244.639H321.256ZM251.969 194.688V200.986C251.823 208.896 251.822 221.934 245.23 238.193L229.41 235.703C234.244 223.472 235.489 214.683 235.855 207.871H210.953V194.688H251.969ZM306.022 273.79V286.24H269.694C272.257 296.934 287.638 306.968 311.588 309.532L306.022 321.689C285.074 319.272 269.034 311.289 261.051 300.01C253.067 311.216 237.028 319.272 216.227 321.689L210.807 309.532C234.244 306.968 249.845 296.934 252.555 286.24H216.08V273.79H252.848V261.924H269.254V273.79H306.022ZM440.641 190V322.568H424.234V190H440.641ZM369.302 199.668C389.224 199.668 403.726 217.833 403.873 246.396C403.726 275.254 389.224 293.271 369.302 293.271C349.234 293.271 334.733 275.254 334.733 246.396C334.733 217.833 349.234 199.668 369.302 199.668ZM369.302 214.316C358.023 214.316 350.406 226.182 350.406 246.396C350.406 266.758 358.023 278.623 369.302 278.623C380.435 278.623 388.052 266.758 388.052 246.396C388.052 226.182 380.435 214.316 369.302 214.316Z" fill="white"/>
</g>
<defs>
<clipPath id="clip0_209_233">
<rect width="512" height="512" fill="white"/>
</clipPath>
</defs>
</svg>
