<svg width="72" height="72" viewBox="0 0 72 72" fill="none" xmlns="http://www.w3.org/2000/svg">
<g clip-path="url(#clip0_209_204)">
<path d="M57.9375 0H14.0625C6.296 0 0 6.296 0 14.0625V57.9375C0 65.704 6.296 72 14.0625 72H57.9375C65.704 72 72 65.704 72 57.9375V14.0625C72 6.296 65.704 0 57.9375 0Z" fill="#F6CC04"/>
<path d="M15.0136 30.8815C15.0136 32.859 16.2084 34.7953 18.5567 35.5987L17.5268 37.329C15.817 36.7008 14.6429 35.5369 13.9837 34.095C13.3245 35.6708 12.14 36.948 10.3788 37.6381L9.30762 35.9489C11.6559 35.022 12.8301 33.0032 12.8507 30.8815V30.7373H9.78138V28.9451H12.8507V26.9058H15.0136V28.9451H18.0418V30.7373H15.0136V30.8815ZM25.1897 26.7204V38.1118H23.0062V33.3534H21.2141V38.0294H19.0511V27.0294H21.2141V31.4994H23.0062V26.7204H25.1897ZM25.1897 38.9564V45.3216H22.9032V40.8104H12.4387V38.9564H25.1897ZM42.6992 27.3589V28.2859C42.6992 29.4395 42.6992 31.2111 42.143 33.4564L39.9183 33.2092C40.3199 31.4788 40.4229 30.212 40.4539 29.2129H36.128V27.3589H42.6992ZM44.4296 34.3834V36.2167H27.538V34.3834H35.201V31.52H37.4463V34.3834H44.4296ZM34.686 27.3589V28.2447C34.6655 29.3571 34.6655 31.1905 33.7385 33.477L31.5137 33.1268C32.1935 31.4068 32.3686 30.1708 32.4201 29.2129H28.9182V27.3589H34.686ZM42.2872 38.4827V40.2336H37.1786C37.5391 41.7374 39.702 43.1484 43.07 43.5089L42.2872 45.2186C39.3415 44.8787 37.0858 43.7561 35.9632 42.1699C34.8405 43.7458 32.5849 44.8787 29.6598 45.2186L28.8976 43.5089C32.1935 43.1484 34.3873 41.7374 34.7684 40.2336H29.6392V38.4827H34.8096V36.8141H37.1168V38.4827H42.2872ZM61.218 26.6998V45.3422H58.9109V26.6998H61.218ZM51.1861 28.0593C53.9876 28.0593 56.027 30.6137 56.0476 34.6305C56.027 38.6886 53.9876 41.2223 51.1861 41.2223C48.364 41.2223 46.3247 38.6886 46.3247 34.6305C46.3247 30.6137 48.364 28.0593 51.1861 28.0593ZM51.1861 30.1193C49.6 30.1193 48.5288 31.7879 48.5288 34.6305C48.5288 37.4939 49.6 39.1624 51.1861 39.1624C52.7517 39.1624 53.8228 37.4939 53.8228 34.6305C53.8228 31.7879 52.7517 30.1193 51.1861 30.1193Z" fill="white"/>
</g>
<defs>
<clipPath id="clip0_209_204">
<rect width="72" height="72" fill="white"/>
</clipPath>
</defs>
</svg>
