<svg width="96" height="96" viewBox="0 0 96 96" fill="none" xmlns="http://www.w3.org/2000/svg">
<g clip-path="url(#clip0_209_210)">
<path d="M77.25 0H18.75C8.39466 0 0 8.39466 0 18.75V77.25C0 87.6053 8.39466 96 18.75 96H77.25C87.6053 96 96 87.6053 96 77.25V18.75C96 8.39466 87.6053 0 77.25 0Z" fill="#F6CC04"/>
<path d="M20.0182 41.1753C20.0182 43.812 21.6113 46.3938 24.7423 47.465L23.3691 49.772C21.0893 48.9344 19.5238 47.3825 18.6449 45.4599C17.766 47.561 16.1867 49.2639 13.8383 50.1841L12.4102 47.9318C15.5412 46.6959 17.1068 44.0043 17.1343 41.1753V40.983H13.0418V38.5935H17.1343V35.8744H20.0182V38.5935H24.0557V40.983H20.0182V41.1753ZM33.5863 35.6271V50.8158H30.6749V44.4711H28.2854V50.7059H25.4015V36.0392H28.2854V41.9992H30.6749V35.6271H33.5863ZM33.5863 51.9419V60.4288H30.5376V54.4138H16.5849V51.9419H33.5863ZM56.9322 36.4786V37.7146C56.9322 39.2526 56.9322 41.6148 56.1907 44.6085L53.2244 44.2789C53.7599 41.9718 53.8972 40.2827 53.9385 38.9506H48.1706V36.4786H56.9322ZM59.2394 45.8445V48.2889H36.7174V45.8445H46.9347V42.0267H49.9284V45.8445H59.2394ZM46.248 36.4786V37.6596C46.2206 39.1428 46.2206 41.5873 44.9846 44.636L42.0183 44.1691C42.9247 41.8757 43.1582 40.2277 43.2268 38.9506H38.5576V36.4786H46.248ZM56.3829 51.3102V53.6448H49.5714C50.0521 55.6498 52.9359 57.5312 57.4267 58.0118L56.3829 60.2915C52.4553 59.8383 49.4478 58.3415 47.951 56.2265C46.4541 58.3277 43.4466 59.8383 39.5464 60.2915L38.5301 58.0118C42.9247 57.5312 45.8498 55.6498 46.3579 53.6448H39.5189V51.3102H46.4128V49.0854H49.489V51.3102H56.3829ZM81.624 35.5997V60.4563H78.5479V35.5997H81.624ZM68.2481 37.4124C71.9835 37.4124 74.7026 40.8183 74.7301 46.174C74.7026 51.5848 71.9835 54.9631 68.2481 54.9631C64.4854 54.9631 61.7663 51.5848 61.7663 46.174C61.7663 40.8183 64.4854 37.4124 68.2481 37.4124ZM68.2481 40.159C66.1333 40.159 64.7051 42.3838 64.7051 46.174C64.7051 49.9918 66.1333 52.2166 68.2481 52.2166C70.3356 52.2166 71.7637 49.9918 71.7637 46.174C71.7637 42.3838 70.3356 40.159 68.2481 40.159Z" fill="white"/>
</g>
<defs>
<clipPath id="clip0_209_210">
<rect width="96" height="96" fill="white"/>
</clipPath>
</defs>
</svg>
