<svg width="24" height="24" viewBox="0 0 24 24" fill="none" xmlns="http://www.w3.org/2000/svg">
<path fill-rule="evenodd" clip-rule="evenodd" d="M5.055 3.24563C4.87576 3.04358 4.60173 2.95351 4.33757 3.00983C4.07341 3.06615 3.85994 3.26015 3.77869 3.51773C3.69744 3.77531 3.76097 4.05668 3.945 4.25437L5.74875 6.23906C2.34375 8.32875 0.879375 11.55 0.814687 11.6962C0.728449 11.8902 0.728449 12.1117 0.814687 12.3056C0.8475 12.3797 1.64156 14.1403 3.40687 15.9056C5.75906 18.2569 8.73 19.5 12 19.5C13.6806 19.5096 15.3442 19.1636 16.8816 18.4847L18.9441 20.7544C19.1233 20.9564 19.3973 21.0465 19.6615 20.9902C19.9256 20.9339 20.1391 20.7399 20.2204 20.4823C20.3016 20.2247 20.2381 19.9433 20.0541 19.7456L5.055 3.24563ZM9.49219 10.3556L13.3988 14.6541C12.1888 15.2906 10.7014 15.0285 9.78189 14.0168C8.86235 13.005 8.74322 11.4994 9.49219 10.3556V10.3556ZM12 18C9.11438 18 6.59344 16.9509 4.50656 14.8828C3.64998 14.0315 2.92146 13.0605 2.34375 12C2.78344 11.1759 4.18688 8.86969 6.78281 7.37063L8.47031 9.22219C7.12147 10.9497 7.21341 13.3977 8.68803 15.0192C10.1627 16.6407 12.591 16.964 14.4384 15.7847L15.8194 17.3034C14.6006 17.771 13.3054 18.0072 12 18V18ZM12.5625 9.05344C12.1555 8.97577 11.8886 8.5829 11.9663 8.17594C12.0439 7.76897 12.4368 7.50202 12.8438 7.57969C14.8069 7.96027 16.2858 9.58682 16.4784 11.5772C16.517 11.9896 16.214 12.3552 15.8016 12.3938C15.7781 12.3951 15.7547 12.3951 15.7312 12.3938C15.3427 12.3954 15.0172 12.1 14.9812 11.7131C14.8516 10.3893 13.8681 9.30782 12.5625 9.05344V9.05344ZM23.1825 12.3056C23.1431 12.3937 22.1934 14.4966 20.055 16.4119C19.8561 16.5957 19.5736 16.658 19.3159 16.5749C19.0582 16.4919 18.8652 16.2763 18.8111 16.011C18.757 15.7456 18.8501 15.4718 19.0547 15.2944C20.1038 14.3518 20.9851 13.2378 21.6609 12C21.082 10.9385 20.3518 9.96683 19.4934 9.11531C17.4066 7.04906 14.8856 6 12 6C11.392 5.99926 10.7849 6.04849 10.185 6.14719C9.91951 6.19414 9.64926 6.09498 9.47713 5.88747C9.30501 5.67996 9.25751 5.39603 9.35271 5.14379C9.44792 4.89156 9.67119 4.70983 9.9375 4.66781C10.6192 4.55525 11.3091 4.49912 12 4.5C15.27 4.5 18.2409 5.74312 20.5931 8.09531C22.3584 9.86062 23.1525 11.6222 23.1853 11.6962C23.2716 11.8902 23.2716 12.1117 23.1853 12.3056H23.1825Z" fill="#A1824A"/>
</svg>
