<svg width="24" height="24" viewBox="0 0 24 24" fill="#FFFFFF" xmlns="http://www.w3.org/2000/svg">
<path opacity="0.99" d="M11.6 6.3L12 6.83334L12.4 6.3C13.0138 5.48164 13.9771 5 15 5H21C21.5523 5 22 5.44772 22 6V18C22 18.5523 21.5523 19 21 19H15C13.4813 19 12.25 20.2313 12.25 21.75C12.25 21.8881 12.1381 22 12 22C11.8619 22 11.75 21.8881 11.75 21.75C11.75 20.2313 10.5187 19 9 19H3C2.44772 19 2 18.5523 2 18V6C2 5.44771 2.44771 5 3 5H9C10.0229 5 10.9862 5.48164 11.6 6.3ZM9 18.5L9.0008 18.5C9.70367 18.4989 10.3877 18.7269 10.9494 19.1495L11.75 19.752V18.75V8.25C11.75 6.73121 10.5187 5.5 9 5.5H3H2.5V6V18V18.5H3L9 18.5ZM21 18.5H21.5V18V6V5.5H21H15C13.4813 5.5 12.25 6.73121 12.25 8.25V18.75V19.752L13.0506 19.1495C13.6123 18.7269 14.2963 18.4989 14.9992 18.5H15H21Z" fill="#FF5733" stroke="#999999"/>
</svg>
