<svg width="25" height="24" viewBox="0 0 25 24" fill="none" xmlns="http://www.w3.org/2000/svg">
<path fill-rule="evenodd" clip-rule="evenodd" d="M21.25 4.5H15.25C14.0697 4.5 12.9582 5.05573 12.25 6C11.5418 5.05573 10.4303 4.5 9.25 4.5H3.25C2.42157 4.5 1.75 5.17157 1.75 6V18C1.75 18.8284 2.42157 19.5 3.25 19.5H9.25C10.4926 19.5 11.5 20.5074 11.5 21.75C11.5 22.1642 11.8358 22.5 12.25 22.5C12.6642 22.5 13 22.1642 13 21.75C13 20.5074 14.0074 19.5 15.25 19.5H21.25C22.0784 19.5 22.75 18.8284 22.75 18V6C22.75 5.17157 22.0784 4.5 21.25 4.5V4.5ZM9.25 18H3.25V6H9.25C10.4926 6 11.5 7.00736 11.5 8.25V18.75C10.8515 18.262 10.0616 17.9987 9.25 18V18ZM21.25 18H15.25C14.4384 17.9987 13.6485 18.262 13 18.75V8.25C13 7.00736 14.0074 6 15.25 6H21.25V18Z" fill="#96704F"/>
</svg>
