<svg width="25" height="24" viewBox="0 0 25 24" fill="none" xmlns="http://www.w3.org/2000/svg">
<path fill-rule="evenodd" clip-rule="evenodd" d="M22.5 6H20.25V5.25C20.25 4.42157 19.5784 3.75 18.75 3.75H6.75C5.92157 3.75 5.25 4.42157 5.25 5.25V6H3C2.17157 6 1.5 6.67157 1.5 7.5V9C1.5 11.0711 3.17893 12.75 5.25 12.75H5.59219C6.49518 15.6116 9.01452 17.6614 12 17.9634V20.25H9.75C9.33579 20.25 9 20.5858 9 21C9 21.4142 9.33579 21.75 9.75 21.75H15.75C16.1642 21.75 16.5 21.4142 16.5 21C16.5 20.5858 16.1642 20.25 15.75 20.25H13.5V17.9606C16.4944 17.6578 18.9787 15.5569 19.8825 12.75H20.25C22.3211 12.75 24 11.0711 24 9V7.5C24 6.67157 23.3284 6 22.5 6V6ZM5.25 11.25C4.00736 11.25 3 10.2426 3 9V7.5H5.25V10.5C5.25 10.75 5.26219 11 5.28656 11.25H5.25ZM18.75 10.4156C18.75 13.7456 16.0791 16.4756 12.7959 16.5H12.75C9.43629 16.5 6.75 13.8137 6.75 10.5V5.25H18.75V10.4156ZM22.5 9C22.5 10.2426 21.4926 11.25 20.25 11.25H20.2031C20.2339 10.9729 20.2496 10.6944 20.25 10.4156V7.5H22.5V9Z" fill="#96704F"/>
</svg>
